<svg width="727" height="687" viewBox="0 0 727 687" fill="none" xmlns="http://www.w3.org/2000/svg">
<g clip-path="url(#clip0_696_40)">
<path d="M192.598 169.319C192.598 169.319 170.09 192.804 173.982 235.241C177.875 277.678 157.176 251.653 161.999 322.001C166.822 392.348 243.999 612.001 429.999 624.001C614.822 574.11 625.999 520.001 641.253 417.653C641.253 298 599.999 100.001 401.999 112.002C311.999 112.002 296.616 184.262 281.999 154.001C267.382 123.74 192.577 169.319 192.577 169.319H192.598Z" fill="#85C441"/>
<path d="M342.593 86.6702C342.593 86.6702 378.427 9.25542 437.877 13.7137C497.328 18.1719 481.67 59.3729 433.75 75.0273C385.847 90.6698 358.059 68.4434 352.812 94.2602C347.564 120.077 342.576 86.6822 342.576 86.6822L342.593 86.6702Z" fill="#85C441"/>
<path d="M571.618 120.355C571.618 120.355 625.62 80.6945 589.426 62.644C553.232 44.5935 475.119 59.8445 497.15 93.0758C519.174 126.278 571.618 120.355 571.618 120.355Z" fill="#85C441"/>
<path d="M260.751 135.177C260.751 135.177 236.163 64.1697 208.769 91.7718C181.376 119.374 189.359 142.272 209.715 144.984C230.071 147.696 260.751 135.177 260.751 135.177Z" fill="#85C441"/>
</g>
<defs>
<clipPath id="clip0_696_40">
<rect width="727" height="687" fill="white"/>
</clipPath>
</defs>
</svg>
